<?xml version="1.0" encoding="utf-8"?>
<!-- Generator: Adobe Illustrator 24.3.0, SVG Export Plug-In . SVG Version: 6.00 Build 0)  -->
<svg version="1.1" id="Layer_1" xmlns="http://www.w3.org/2000/svg" xmlns:xlink="http://www.w3.org/1999/xlink" x="0px" y="0px"
	 viewBox="0 0 534 100.67" style="enable-background:new 0 0 534 100.67;" xml:space="preserve">
<g>
	<g>
		<path d="M37.06,88.32l-14.16-22l-8.48,0.14v21.86h-4.35V39.89h4.35V62.6l8.41-0.21l13.52-22.49h4.98L26.61,64.07l15.63,24.25
			H37.06z"/>
		<path d="M74.47,69.11H59.62v19.2h-4.35V39.82h17.87c10.02,0,15.14,4.28,15.14,14.37c0,7.36-2.87,12.33-9.39,14.09l10.02,20.04
			h-4.83L74.47,69.11z M73.14,43.68H59.62v21.58h13.52c7.92,0,10.65-4.48,10.65-11C83.79,46.97,80.43,43.68,73.14,43.68z"/>
		<path d="M100.91,88.32l14.02-48.49h10.16l13.94,48.49h-4.27l-3.93-13.45h-21.72l-3.85,13.45H100.91z M118.08,43.61l-7.92,27.4
			h19.62l-7.92-27.4H118.08z"/>
		<path d="M179.35,88.32l-14.16-22l-8.48,0.14v21.86h-4.35V39.89h4.35V62.6l8.41-0.21l13.52-22.49h4.98l-14.72,24.18l15.63,24.25
			H179.35z"/>
		<path d="M197.56,88.32V39.82h29.22v3.92h-24.88v17.87h20.67v3.85h-20.67v18.99h24.88v3.85H197.56z"/>
		<path d="M240.87,88.32V39.82h8.55l20.39,44.64h1.61V39.82h4.28v48.49h-8.41l-20.53-44.57h-1.54v44.57H240.87z"/>
		<path d="M314.61,39.82h17.31c9.46,0,14.37,3.78,14.37,12.26c0,6.52-2.52,9.46-6.45,11.14c4.28,1.33,8.06,4.35,8.06,11.56
			c0,10.37-5.89,13.52-14.93,13.52h-18.36V39.82z M318.95,43.68v17.94h13.45c6.66,0,9.46-2.94,9.46-9.25
			c0-6.03-3.29-8.69-10.09-8.69H318.95z M318.95,65.4v19.06h13.95c6.31,0,10.58-2.1,10.58-9.81c0-8.48-7.36-9.25-11-9.25H318.95z"/>
		<path d="M357.83,43.75v-3.92h35.04v3.92h-15.28v44.57h-4.35V43.75H357.83z"/>
	</g>
	<g>
		<polygon points="68.79,24.35 60.13,24.35 67.73,11.19 68.8,9.33 66.66,9.33 56.92,9.33 56.92,11.19 65.58,11.19 57.99,24.35 
			56.92,26.2 59.06,26.2 67.72,26.2 		"/>
		<g>
			<polygon points="92.35,9.33 80.54,9.33 80.54,11.19 91.27,11.19 			"/>
			<polygon points="92.35,16.84 80.54,16.84 80.54,18.7 91.27,18.7 			"/>
			<polygon points="92.35,24.35 80.54,24.35 80.54,26.2 91.27,26.2 			"/>
		</g>
		<path d="M115.97,14.54v-1.05c0-2.3-1.86-4.16-4.16-4.16h-5.8h-1.86v9.36v7.51h1.86V18.7h3.48l4.33,7.51h2.14l-4.33-7.51h0.18
			C114.1,18.7,115.97,16.84,115.97,14.54z M106.01,11.19h5.8c1.27,0,2.3,1.03,2.3,2.3v1.05c0,1.27-1.03,2.3-2.3,2.3h-5.8V11.19z"/>
		<path d="M21.49,14.54v-1.05c0-2.3-1.86-4.16-4.16-4.16h-5.8H9.68v9.36v7.51h1.86V18.7h3.48l4.33,7.51h2.14l-4.33-7.51h0.18
			C19.63,18.7,21.49,16.84,21.49,14.54z M11.53,11.19h5.8c1.27,0,2.3,1.03,2.3,2.3v1.05c0,1.27-1.03,2.3-2.3,2.3h-5.8V11.19z"/>
		<polygon points="34.36,26.2 39.17,14.29 43.99,26.2 45.99,26.2 40.18,11.81 39.17,9.33 38.17,11.81 32.36,26.2 		"/>
		<g>
			<polygon points="117.07,10.04 117.07,9.69 119.58,9.69 119.58,10.04 118.52,10.04 118.52,13.17 118.14,13.17 118.14,10.04 			"/>
			<polygon points="120.56,13.17 120.56,9.69 121.26,9.69 122.24,12.63 123.23,9.69 123.93,9.69 123.93,13.17 123.54,13.17 
				123.54,10.1 123.47,10.1 122.46,13.04 122.02,13.04 121.01,10.1 120.94,10.1 120.94,13.17 			"/>
		</g>
	</g>
	<g>
		<path d="M426.14,59.73l-5.91-9.19l-3.54,0.06v9.13h-1.81V39.51h1.81v9.48l3.51-0.09l5.65-9.39h2.08l-6.15,10.1l6.53,10.13H426.14z
			"/>
		<path d="M433.3,59.73V39.48h1.81v20.25H433.3z"/>
		<path d="M440.05,41.12v-1.64h14.64v1.64h-6.38v18.62h-1.81V41.12H440.05z"/>
		<path d="M458.34,41.12v-1.64h14.64v1.64h-6.38v18.62h-1.81V41.12H458.34z"/>
		<path d="M484.42,51.13v8.61h-1.82v-8.61l-6.53-11.65h2.02l5.42,9.78l5.39-9.78h2.05L484.42,51.13z"/>
		<path d="M414.87,90.25V69.99h12.2v1.64h-10.39v7.46h8.64v1.61h-8.64v7.93h10.39v1.61H414.87z"/>
		<path d="M432.83,90.25V70.02h7.4c5.59,0,7.23,4.27,7.23,9.78c0,5.56-1.58,10.45-7.23,10.45H432.83z M440.23,71.66h-5.59v16.98
			h5.59c4.27,0,5.36-4.42,5.36-8.84C445.59,75.44,444.51,71.66,440.23,71.66z"/>
		<path d="M453.63,90.25V69.99h1.81v20.25H453.63z"/>
		<path d="M460.64,71.63v-1.64h14.64v1.64h-6.38v18.62h-1.82V71.63H460.64z"/>
		<path d="M480.5,90.25V69.99h1.81v20.25H480.5z"/>
		<path d="M488.53,80.18c0-6.7,1.67-10.45,7.93-10.45c6.26,0,7.96,3.72,7.96,10.45c0,7-1.67,10.33-7.96,10.33
			C490.16,90.51,488.53,86.94,488.53,80.18z M502.55,80.18c0-5.71-1.14-8.81-6.09-8.81c-4.98,0-6.06,3.07-6.06,8.81
			c0,5.77,0.99,8.72,6.06,8.72C501.52,88.9,502.55,86.15,502.55,80.18z"/>
		<path d="M510.64,90.25V69.99h3.57l8.52,18.64h0.67V69.99h1.79v20.25h-3.51l-8.58-18.62h-0.65v18.62H510.64z"/>
	</g>
</g>
</svg>
